<svg xmlns="http://www.w3.org/2000/svg" width="340" height="320"><g fill="skyblue" stroke="black" stroke-width="1" opacity="1"><rect width="80" height="40" x="20" y="20" rx="6" ry="6" fill="skyblue" stroke="black" stroke-width="1" opacity="1"/><text x="60" y="40" text-anchor="middle" dominant-baseline="middle" font-family="Arial, sans-serif" font-size="14" font-weight="bold" fill="black" stroke="none" stroke-width="0">A1</text></g><g fill="skyblue" stroke="black" stroke-width="1" opacity="1"><rect width="80" height="40" x="130" y="20" rx="6" ry="6" fill="skyblue" stroke="black" stroke-width="1" opacity="1"/><text x="170" y="40" text-anchor="middle" dominant-baseline="middle" font-family="Arial, sans-serif" font-size="14" font-weight="bold" fill="black" stroke="none" stroke-width="0">A2</text></g><g fill="skyblue" stroke="black" stroke-width="1" opacity="1"><rect width="80" height="40" x="240" y="20" rx="6" ry="6" fill="skyblue" stroke="black" stroke-width="1" opacity="1"/><text x="280" y="40" text-anchor="middle" dominant-baseline="middle" font-family="Arial, sans-serif" font-size="14" font-weight="bold" fill="black" stroke="none" stroke-width="0">B1</text></g><g fill="skyblue" stroke="black" stroke-width="1" opacity="1"><rect width="80" height="40" x="20" y="140" rx="6" ry="6" fill="skyblue" stroke="black" stroke-width="1" opacity="1"/><text x="60" y="160" text-anchor="middle" dominant-baseline="middle" font-family="Arial, sans-serif" font-size="14" font-weight="bold" fill="black" stroke="none" stroke-width="0">A</text></g><g fill="skyblue" stroke="black" stroke-width="1" opacity="1"><rect width="80" height="40" x="130" y="140" rx="6" ry="6" fill="skyblue" stroke="black" stroke-width="1" opacity="1"/><text x="170" y="160" text-anchor="middle" dominant-baseline="middle" font-family="Arial, sans-serif" font-size="14" font-weight="bold" fill="black" stroke="none" stroke-width="0">B</text></g><g fill="skyblue" stroke="black" stroke-width="1" opacity="1"><rect width="80" height="40" x="240" y="140" rx="6" ry="6" fill="skyblue" stroke="black" stroke-width="1" opacity="1"/><text x="280" y="160" text-anchor="middle" dominant-baseline="middle" font-family="Arial, sans-serif" font-size="14" font-weight="bold" fill="black" stroke="none" stroke-width="0">C</text></g><g fill="skyblue" stroke="black" stroke-width="1" opacity="1"><rect width="80" height="40" x="240" y="260" rx="6" ry="6" fill="skyblue" stroke="black" stroke-width="1" opacity="1"/><text x="280" y="280" text-anchor="middle" dominant-baseline="middle" font-family="Arial, sans-serif" font-size="14" font-weight="bold" fill="black" stroke="none" stroke-width="0">Root</text></g><line x1="60" y1="140" x2="60" y2="60" stroke="black" stroke-width="1" opacity="1"/><line x1="60" y1="140" x2="170" y2="60" stroke="black" stroke-width="1" opacity="1"/><line x1="170" y1="140" x2="280" y2="60" stroke="black" stroke-width="1" opacity="1"/><line x1="280" y1="260" x2="60" y2="180" stroke="black" stroke-width="1" opacity="1"/><line x1="280" y1="260" x2="170" y2="180" stroke="black" stroke-width="1" opacity="1"/><line x1="280" y1="260" x2="280" y2="180" stroke="black" stroke-width="1" opacity="1"/></svg>