<svg xmlns="http://www.w3.org/2000/svg" width="310" height="320"><g fill="#90EE90" stroke="black" stroke-width="1" opacity="1"><rect width="120" height="40" x="95" y="20" rx="6" ry="6" fill="#90EE90" stroke="black" stroke-width="1" opacity="1"/><text x="155" y="40" text-anchor="middle" dominant-baseline="middle" font-family="Arial, sans-serif" font-size="14" font-weight="bold" fill="black" stroke="none" stroke-width="0">Root Node</text></g><g fill="#90EE90" stroke="black" stroke-width="1" opacity="1"><rect width="120" height="40" x="20" y="140" rx="6" ry="6" fill="#90EE90" stroke="black" stroke-width="1" opacity="1"/><text x="80" y="160" text-anchor="middle" dominant-baseline="middle" font-family="Arial, sans-serif" font-size="14" font-weight="bold" fill="black" stroke="none" stroke-width="0">Child 1</text></g><g fill="#90EE90" stroke="black" stroke-width="1" opacity="1"><rect width="120" height="40" x="170" y="140" rx="6" ry="6" fill="#90EE90" stroke="black" stroke-width="1" opacity="1"/><text x="230" y="160" text-anchor="middle" dominant-baseline="middle" font-family="Arial, sans-serif" font-size="14" font-weight="bold" fill="black" stroke="none" stroke-width="0">Child 2</text></g><g fill="#90EE90" stroke="black" stroke-width="1" opacity="1"><rect width="120" height="40" x="20" y="260" rx="6" ry="6" fill="#90EE90" stroke="black" stroke-width="1" opacity="1"/><text x="80" y="280" text-anchor="middle" dominant-baseline="middle" font-family="Arial, sans-serif" font-size="14" font-weight="bold" fill="black" stroke="none" stroke-width="0">Grandchild 1</text></g><g fill="#90EE90" stroke="black" stroke-width="1" opacity="1"><rect width="120" height="40" x="170" y="260" rx="6" ry="6" fill="#90EE90" stroke="black" stroke-width="1" opacity="1"/><text x="230" y="280" text-anchor="middle" dominant-baseline="middle" font-family="Arial, sans-serif" font-size="14" font-weight="bold" fill="black" stroke="none" stroke-width="0">Grandchild 2</text></g><path d="M 80 100 L 80 100 L 230 100 L 230 100" fill="none" stroke="black" stroke-width="1" opacity="1"/><path d="M 155 60 L 155 80 L 155 80 L 155 100" fill="none" stroke="black" stroke-width="1" opacity="1"/><path d="M 80 100 L 80 120 L 80 120 L 80 140" fill="none" stroke="black" stroke-width="1" opacity="1"/><path d="M 230 100 L 230 120 L 230 120 L 230 140" fill="none" stroke="black" stroke-width="1" opacity="1"/><path d="M 80 220 L 80 220 L 230 220 L 230 220" fill="none" stroke="black" stroke-width="1" opacity="1"/><path d="M 80 180 L 80 200 L 80 200 L 80 220" fill="none" stroke="black" stroke-width="1" opacity="1"/><path d="M 80 220 L 80 240 L 80 240 L 80 260" fill="none" stroke="black" stroke-width="1" opacity="1"/><path d="M 230 220 L 230 240 L 230 240 L 230 260" fill="none" stroke="black" stroke-width="1" opacity="1"/></svg>