<svg xmlns="http://www.w3.org/2000/svg" width="460" height="451"><g class="chart-title-group"><text x="230" y="30" text-anchor="middle" dominant-baseline="central" font-size="14" font-family="Arial, sans-serif" font-weight="bold" fill="#333333" stroke="none" stroke-width="0">Edge Customization Example</text><text x="230" y="49" text-anchor="middle" dominant-baseline="central" font-size="12" font-family="Arial, sans-serif" font-weight="normal" fill="#666666" stroke="none" stroke-width="0">Dashed red edges with purple text labels and arrow indicators</text></g><defs><marker id="arrowhead-end-5-e74c3c" markerWidth="10" markerHeight="10" orient="auto" markerUnits="strokeWidth" refX="5" refY="5"><polygon points="0,0 0,10 10,5" fill="#e74c3c"/></marker></defs><g fill="#e8f4fd" stroke="#4a90e2" stroke-width="2" opacity="1"><rect width="60" height="40" x="200" y="111" rx="6" ry="6" fill="#e8f4fd" stroke="#4a90e2" stroke-width="2" opacity="1"/><text x="230" y="131" text-anchor="middle" dominant-baseline="middle" font-family="Arial, sans-serif" font-size="14" font-weight="bold" fill="#2c3e50" stroke="none" stroke-width="0">A</text></g><g fill="#e8f4fd" stroke="#4a90e2" stroke-width="2" opacity="1"><rect width="60" height="40" x="110" y="251" rx="6" ry="6" fill="#e8f4fd" stroke="#4a90e2" stroke-width="2" opacity="1"/><text x="140" y="271" text-anchor="middle" dominant-baseline="middle" font-family="Arial, sans-serif" font-size="14" font-weight="bold" fill="#2c3e50" stroke="none" stroke-width="0">B</text></g><g fill="#e8f4fd" stroke="#4a90e2" stroke-width="2" opacity="1"><rect width="60" height="40" x="290" y="251" rx="6" ry="6" fill="#e8f4fd" stroke="#4a90e2" stroke-width="2" opacity="1"/><text x="320" y="271" text-anchor="middle" dominant-baseline="middle" font-family="Arial, sans-serif" font-size="14" font-weight="bold" fill="#2c3e50" stroke="none" stroke-width="0">C</text></g><g fill="#e8f4fd" stroke="#4a90e2" stroke-width="2" opacity="1"><rect width="60" height="40" x="20" y="391" rx="6" ry="6" fill="#e8f4fd" stroke="#4a90e2" stroke-width="2" opacity="1"/><text x="50" y="411" text-anchor="middle" dominant-baseline="middle" font-family="Arial, sans-serif" font-size="14" font-weight="bold" fill="#2c3e50" stroke="none" stroke-width="0">B1</text></g><g fill="#e8f4fd" stroke="#4a90e2" stroke-width="2" opacity="1"><rect width="60" height="40" x="200" y="391" rx="6" ry="6" fill="#e8f4fd" stroke="#4a90e2" stroke-width="2" opacity="1"/><text x="230" y="411" text-anchor="middle" dominant-baseline="middle" font-family="Arial, sans-serif" font-size="14" font-weight="bold" fill="#2c3e50" stroke="none" stroke-width="0">B2</text></g><g fill="#e8f4fd" stroke="#4a90e2" stroke-width="2" opacity="1"><rect width="60" height="40" x="380" y="391" rx="6" ry="6" fill="#e8f4fd" stroke="#4a90e2" stroke-width="2" opacity="1"/><text x="410" y="411" text-anchor="middle" dominant-baseline="middle" font-family="Arial, sans-serif" font-size="14" font-weight="bold" fill="#2c3e50" stroke="none" stroke-width="0">C1</text></g><path d="M 140 201 L 140 201 L 320 201 L 320 201" fill="none" stroke="#e74c3c" stroke-width="2" opacity="1" stroke-dasharray="5,5"/><path d="M 230 151 L 230 176 L 230 176 L 230 201" fill="none" stroke="#e74c3c" stroke-width="2" opacity="1" stroke-dasharray="5,5"/><rect x="138" y="225" width="4" height="2" fill="#f8f9fa" rx="2"/><text x="140" y="226" font-size="11" fill="#8e44ad" text-anchor="middle" dominant-baseline="central">to Department B</text><path d="M 140 201 L 140 226 L 140 226 L 140 251" fill="none" stroke="#e74c3c" stroke-width="2" opacity="1" stroke-dasharray="5,5" marker-end="url(#arrowhead-end-5-e74c3c)"/><rect x="318" y="225" width="4" height="2" fill="#f8f9fa" rx="2"/><text x="320" y="226" font-size="11" fill="#8e44ad" text-anchor="middle" dominant-baseline="central">to Department C</text><path d="M 320 201 L 320 226 L 320 226 L 320 251" fill="none" stroke="#e74c3c" stroke-width="2" opacity="1" stroke-dasharray="5,5" marker-end="url(#arrowhead-end-5-e74c3c)"/><path d="M 50 341 L 50 341 L 230 341 L 230 341" fill="none" stroke="#e74c3c" stroke-width="2" opacity="1" stroke-dasharray="5,5"/><path d="M 140 291 L 140 316 L 140 316 L 140 341" fill="none" stroke="#e74c3c" stroke-width="2" opacity="1" stroke-dasharray="5,5"/><rect x="48" y="365" width="4" height="2" fill="#f8f9fa" rx="2"/><text x="50" y="366" font-size="11" fill="#8e44ad" text-anchor="middle" dominant-baseline="central">sub-unit</text><path d="M 50 341 L 50 366 L 50 366 L 50 391" fill="none" stroke="#e74c3c" stroke-width="2" opacity="1" stroke-dasharray="5,5" marker-end="url(#arrowhead-end-5-e74c3c)"/><rect x="228" y="365" width="4" height="2" fill="#f8f9fa" rx="2"/><text x="230" y="366" font-size="11" fill="#8e44ad" text-anchor="middle" dominant-baseline="central">branch</text><path d="M 230 341 L 230 366 L 230 366 L 230 391" fill="none" stroke="#e74c3c" stroke-width="2" opacity="1" stroke-dasharray="5,5" marker-end="url(#arrowhead-end-5-e74c3c)"/><path d="M 320 291 L 320 321 L 320 321 L 320 351" fill="none" stroke="#e74c3c" stroke-width="2" opacity="1" stroke-dasharray="5,5"/><path d="M 320 351 L 320 351 L 410 351 L 410 351" fill="none" stroke="#e74c3c" stroke-width="2" opacity="1" stroke-dasharray="5,5"/><rect x="408" y="370" width="4" height="2" fill="#f8f9fa" rx="2"/><text x="410" y="371" font-size="11" fill="#8e44ad" text-anchor="middle" dominant-baseline="central">division</text><path d="M 410 351 L 410 371 L 410 371 L 410 391" fill="none" stroke="#e74c3c" stroke-width="2" opacity="1" stroke-dasharray="5,5" marker-end="url(#arrowhead-end-5-e74c3c)"/></svg>