<svg xmlns="http://www.w3.org/2000/svg" width="280" height="230"><g fill="lightblue" stroke="black" stroke-width="1" opacity="1"><rect width="60" height="30" x="200" y="20" rx="6" ry="6" fill="lightblue" stroke="black" stroke-width="1" opacity="1"/><text x="230" y="35" text-anchor="middle" dominant-baseline="middle" font-family="Arial, sans-serif" font-size="14" font-weight="bold" fill="black" stroke="none" stroke-width="0">Root</text></g><g fill="lightblue" stroke="black" stroke-width="1" opacity="1"><rect width="60" height="30" x="20" y="100" rx="6" ry="6" fill="lightblue" stroke="black" stroke-width="1" opacity="1"/><text x="50" y="115" text-anchor="middle" dominant-baseline="middle" font-family="Arial, sans-serif" font-size="14" font-weight="bold" fill="black" stroke="none" stroke-width="0">A</text></g><g fill="lightblue" stroke="black" stroke-width="1" opacity="1"><rect width="60" height="30" x="110" y="100" rx="6" ry="6" fill="lightblue" stroke="black" stroke-width="1" opacity="1"/><text x="140" y="115" text-anchor="middle" dominant-baseline="middle" font-family="Arial, sans-serif" font-size="14" font-weight="bold" fill="black" stroke="none" stroke-width="0">B</text></g><g fill="lightblue" stroke="black" stroke-width="1" opacity="1"><rect width="60" height="30" x="200" y="100" rx="6" ry="6" fill="lightblue" stroke="black" stroke-width="1" opacity="1"/><text x="230" y="115" text-anchor="middle" dominant-baseline="middle" font-family="Arial, sans-serif" font-size="14" font-weight="bold" fill="black" stroke="none" stroke-width="0">C</text></g><g fill="lightblue" stroke="black" stroke-width="1" opacity="1"><rect width="60" height="30" x="20" y="180" rx="6" ry="6" fill="lightblue" stroke="black" stroke-width="1" opacity="1"/><text x="50" y="195" text-anchor="middle" dominant-baseline="middle" font-family="Arial, sans-serif" font-size="14" font-weight="bold" fill="black" stroke="none" stroke-width="0">A1</text></g><g fill="lightblue" stroke="black" stroke-width="1" opacity="1"><rect width="60" height="30" x="110" y="180" rx="6" ry="6" fill="lightblue" stroke="black" stroke-width="1" opacity="1"/><text x="140" y="195" text-anchor="middle" dominant-baseline="middle" font-family="Arial, sans-serif" font-size="14" font-weight="bold" fill="black" stroke="none" stroke-width="0">A2</text></g><g fill="lightblue" stroke="black" stroke-width="1" opacity="1"><rect width="60" height="30" x="200" y="180" rx="6" ry="6" fill="lightblue" stroke="black" stroke-width="1" opacity="1"/><text x="230" y="195" text-anchor="middle" dominant-baseline="middle" font-family="Arial, sans-serif" font-size="14" font-weight="bold" fill="black" stroke="none" stroke-width="0">B1</text></g><line x1="230" y1="50" x2="50" y2="100" stroke="black" stroke-width="1" opacity="1"/><line x1="230" y1="50" x2="140" y2="100" stroke="black" stroke-width="1" opacity="1"/><line x1="230" y1="50" x2="230" y2="100" stroke="black" stroke-width="1" opacity="1"/><line x1="50" y1="130" x2="50" y2="180" stroke="black" stroke-width="1" opacity="1"/><line x1="50" y1="130" x2="140" y2="180" stroke="black" stroke-width="1" opacity="1"/><line x1="140" y1="130" x2="230" y2="180" stroke="black" stroke-width="1" opacity="1"/></svg>