<svg xmlns="http://www.w3.org/2000/svg" width="340" height="320"><g fill="#08CB00" stroke="black" stroke-width="1" opacity="1"><rect width="80" height="40" x="130" y="20" rx="6" ry="6" fill="#08CB00" stroke="black" stroke-width="1" opacity="1"/><text x="170" y="40" text-anchor="middle" dominant-baseline="middle" font-family="Arial, sans-serif" font-size="14" font-weight="bold" fill="black" stroke="none" stroke-width="0">A</text></g><text x="170" y="40" text-anchor="middle" font-size="14" font-family="Arial, sans-serif" font-weight="bold" fill="black" stroke="none" stroke-width="0" dominant-baseline="central">A</text><g fill="#08CB00" stroke="black" stroke-width="1" opacity="1"><rect width="80" height="40" x="75" y="140" rx="6" ry="6" fill="#08CB00" stroke="black" stroke-width="1" opacity="1"/><text x="115" y="160" text-anchor="middle" dominant-baseline="middle" font-family="Arial, sans-serif" font-size="14" font-weight="bold" fill="black" stroke="none" stroke-width="0">B</text></g><text x="115" y="160" text-anchor="middle" font-size="14" font-family="Arial, sans-serif" font-weight="bold" fill="black" stroke="none" stroke-width="0" dominant-baseline="central">B</text><g fill="#08CB00" stroke="black" stroke-width="1" opacity="1"><rect width="80" height="40" x="185" y="140" rx="6" ry="6" fill="#08CB00" stroke="black" stroke-width="1" opacity="1"/><text x="225" y="160" text-anchor="middle" dominant-baseline="middle" font-family="Arial, sans-serif" font-size="14" font-weight="bold" fill="black" stroke="none" stroke-width="0">C</text></g><text x="225" y="160" text-anchor="middle" font-size="14" font-family="Arial, sans-serif" font-weight="bold" fill="black" stroke="none" stroke-width="0" dominant-baseline="central">C</text><g fill="#08CB00" stroke="black" stroke-width="1" opacity="1"><rect width="80" height="40" x="20" y="260" rx="6" ry="6" fill="#08CB00" stroke="black" stroke-width="1" opacity="1"/><text x="60" y="280" text-anchor="middle" dominant-baseline="middle" font-family="Arial, sans-serif" font-size="14" font-weight="bold" fill="black" stroke="none" stroke-width="0">D</text></g><text x="60" y="280" text-anchor="middle" font-size="14" font-family="Arial, sans-serif" font-weight="bold" fill="black" stroke="none" stroke-width="0" dominant-baseline="central">D</text><g fill="#08CB00" stroke="black" stroke-width="1" opacity="1"><rect width="80" height="40" x="130" y="260" rx="6" ry="6" fill="#08CB00" stroke="black" stroke-width="1" opacity="1"/><text x="170" y="280" text-anchor="middle" dominant-baseline="middle" font-family="Arial, sans-serif" font-size="14" font-weight="bold" fill="black" stroke="none" stroke-width="0">E</text></g><text x="170" y="280" text-anchor="middle" font-size="14" font-family="Arial, sans-serif" font-weight="bold" fill="black" stroke="none" stroke-width="0" dominant-baseline="central">E</text><g fill="#08CB00" stroke="black" stroke-width="1" opacity="1"><rect width="80" height="40" x="240" y="260" rx="6" ry="6" fill="#08CB00" stroke="black" stroke-width="1" opacity="1"/><text x="280" y="280" text-anchor="middle" dominant-baseline="middle" font-family="Arial, sans-serif" font-size="14" font-weight="bold" fill="black" stroke="none" stroke-width="0">F</text></g><text x="280" y="280" text-anchor="middle" font-size="14" font-family="Arial, sans-serif" font-weight="bold" fill="black" stroke="none" stroke-width="0" dominant-baseline="central">F</text><path d="M 115 100 L 115 100 L 225 100 L 225 100" fill="none" stroke="black" stroke-width="1" opacity="1"/><path d="M 170 60 L 170 80 L 170 80 L 170 100" fill="none" stroke="black" stroke-width="1" opacity="1"/><path d="M 115 100 L 115 120 L 115 120 L 115 140" fill="none" stroke="black" stroke-width="1" opacity="1"/><path d="M 225 100 L 225 120 L 225 120 L 225 140" fill="none" stroke="black" stroke-width="1" opacity="1"/><path d="M 60 220 L 60 220 L 170 220 L 170 220" fill="none" stroke="black" stroke-width="1" opacity="1"/><path d="M 115 180 L 115 200 L 115 200 L 115 220" fill="none" stroke="black" stroke-width="1" opacity="1"/><path d="M 60 220 L 60 240 L 60 240 L 60 260" fill="none" stroke="black" stroke-width="1" opacity="1"/><path d="M 170 220 L 170 240 L 170 240 L 170 260" fill="none" stroke="black" stroke-width="1" opacity="1"/><path d="M 225 180 L 225 205 L 225 205 L 225 230" fill="none" stroke="black" stroke-width="1" opacity="1"/><path d="M 225 230 L 225 230 L 280 230 L 280 230" fill="none" stroke="black" stroke-width="1" opacity="1"/><path d="M 280 230 L 280 245 L 280 245 L 280 260" fill="none" stroke="black" stroke-width="1" opacity="1"/></svg>