<svg xmlns="http://www.w3.org/2000/svg" width="700" height="318.4"><g class="chart-title-group"><text x="350" y="30" text-anchor="middle" dominant-baseline="central" font-size="14" font-family="Arial, sans-serif" font-weight="bold" fill="#333333" stroke="none" stroke-width="0">Collapsible Node Example</text><text x="350" y="49" text-anchor="middle" dominant-baseline="central" font-size="12" font-family="Arial, sans-serif" font-weight="normal" fill="#666666" stroke="none" stroke-width="0">Click the ▼ buttons to expand and view detailed descriptions</text></g><g fill="#e8f4fd" stroke="black" stroke-width="1" opacity="1"><rect width="200" height="40" x="250" y="111" rx="6" ry="6" fill="#e8f4fd" stroke="black" stroke-width="1" opacity="1"/><text x="340" y="130" text-anchor="middle" dominant-baseline="middle" font-family="Arial, sans-serif" font-size="14" font-weight="bold" fill="black" stroke="none" stroke-width="0">Organization</text><g style="outline: none;"><rect x="426" y="118.6" width="20" height="20" fill="transparent" stroke="none" outline="none" cursor="pointer" style="outline: none; border: none;"/><path d="M 432 126.6 &#10;                       L 436 130.6 &#10;                       L 440 126.6" fill="none" stroke="black" stroke-width="2" stroke-linecap="round" stroke-linejoin="round"/></g></g><g fill="#e8f4fd" stroke="black" stroke-width="1" opacity="1"><rect width="200" height="40" x="20" y="231" rx="6" ry="6" fill="#e8f4fd" stroke="black" stroke-width="1" opacity="1"/><text x="110" y="250" text-anchor="middle" dominant-baseline="middle" font-family="Arial, sans-serif" font-size="14" font-weight="bold" fill="black" stroke="none" stroke-width="0">Development</text><g style="outline: none;"><rect x="196" y="238.6" width="20" height="20" fill="transparent" stroke="none" outline="none" cursor="pointer" style="outline: none; border: none;"/><path d="M 202 246.6 &#10;                       L 206 250.6 &#10;                       L 210 246.6" fill="none" stroke="black" stroke-width="2" stroke-linecap="round" stroke-linejoin="round"/></g></g><g fill="#e8f4fd" stroke="black" stroke-width="1" opacity="1"><rect width="200" height="40" x="250" y="231" rx="6" ry="6" fill="#e8f4fd" stroke="black" stroke-width="1" opacity="1"/><text x="340" y="250" text-anchor="middle" dominant-baseline="middle" font-family="Arial, sans-serif" font-size="14" font-weight="bold" fill="black" stroke="none" stroke-width="0">Operations</text><g style="outline: none;"><rect x="426" y="238.6" width="20" height="20" fill="transparent" stroke="none" outline="none" cursor="pointer" style="outline: none; border: none;"/><path d="M 432 246.6 &#10;                       L 436 250.6 &#10;                       L 440 246.6" fill="none" stroke="black" stroke-width="2" stroke-linecap="round" stroke-linejoin="round"/></g></g><g fill="#e8f4fd" stroke="black" stroke-width="1" opacity="1"><rect width="200" height="67.4" x="480" y="231" rx="6" ry="6" fill="#e8f4fd" stroke="black" stroke-width="1" opacity="1"/><text x="570" y="250" text-anchor="middle" dominant-baseline="middle" font-family="Arial, sans-serif" font-size="14" font-weight="bold" fill="black" stroke="none" stroke-width="0">Business</text><text x="580" y="273" font-family="Arial, sans-serif" font-size="11" font-weight="normal" fill="#666666" stroke="none" stroke-width="0" text-anchor="middle" dominant-baseline="alphabetic">Strategic partnerships and business</text><text x="580" y="286.2" font-family="Arial, sans-serif" font-size="11" font-weight="normal" fill="#666666" stroke="none" stroke-width="0" text-anchor="middle" dominant-baseline="alphabetic">growth</text><g style="outline: none;"><rect x="656" y="238.6" width="20" height="20" fill="transparent" stroke="none" outline="none" cursor="pointer" style="outline: none; border: none;"/><path d="M 662 250.6 &#10;                       L 666 246.6 &#10;                       L 670 250.6" fill="none" stroke="black" stroke-width="2" stroke-linecap="round" stroke-linejoin="round"/></g></g><path d="M 120 191 L 120 191 L 580 191 L 580 191" fill="none" stroke="black" stroke-width="1" opacity="1"/><path d="M 350 151 L 350 171 L 350 171 L 350 191" fill="none" stroke="black" stroke-width="1" opacity="1"/><path d="M 120 191 L 120 211 L 120 211 L 120 231" fill="none" stroke="black" stroke-width="1" opacity="1"/><path d="M 350 191 L 350 211 L 350 211 L 350 231" fill="none" stroke="black" stroke-width="1" opacity="1"/><path d="M 580 191 L 580 211 L 580 211 L 580 231" fill="none" stroke="black" stroke-width="1" opacity="1"/></svg>