<svg xmlns="http://www.w3.org/2000/svg" width="660" height="471"><g class="chart-title-group"><text x="330" y="30" text-anchor="middle" dominant-baseline="central" font-size="14" font-family="Arial, sans-serif" font-weight="bold" fill="#333333" stroke="none" stroke-width="0">Custom Shape Example</text><text x="330" y="49" text-anchor="middle" dominant-baseline="central" font-size="12" font-family="Arial, sans-serif" font-weight="normal" fill="#666666" stroke="none" stroke-width="0">All available geometric shapes including custom SVG paths</text></g><polygon points="310,111 350,111 370,141 350,171 310,171 290,141" fill="#e8f4fd" stroke="#666666" stroke-width="2" opacity="1"/><text x="330" y="141" text-anchor="middle" font-size="11" font-family="Arial, sans-serif" font-weight="bold" fill="#333333" stroke="none" stroke-width="0" dominant-baseline="central">Shapes</text><g fill="#98FB98" stroke="#666666" stroke-width="2" opacity="1"><circle cx="60" cy="281" r="30" fill="#98FB98" stroke="#666666" stroke-width="2" opacity="1"/><text x="60" y="281" text-anchor="middle" dominant-baseline="middle" font-family="Arial, sans-serif" font-size="11" font-weight="bold" fill="#333333" stroke="none" stroke-width="0">Circle</text></g><polygon points="240,251 280,281 240,311 200,281" fill="#FFD700" stroke="#666666" stroke-width="2" opacity="1"/><text x="240" y="281" text-anchor="middle" font-size="11" font-family="Arial, sans-serif" font-weight="bold" fill="#333333" stroke="none" stroke-width="0" dominant-baseline="central">Diamond</text><polygon points="420,251 460,311 380,311" fill="#FFB6C1" stroke="#666666" stroke-width="2" opacity="1"/><text x="420" y="281" text-anchor="middle" font-size="11" font-family="Arial, sans-serif" font-weight="bold" fill="#333333" stroke="none" stroke-width="0" dominant-baseline="central">Triangle</text><path d="M 40,20 C 40,15 35,10 25,10 C 15,10 10,15 10,25 C 10,35 40,55 40,55 C 40,55 70,35 70,25 C 70,15 65,10 55,10 C 45,10 40,15 40,20 Z" transform="translate(560, 251)" fill="#FF6B6B" stroke="#666666" stroke-width="2" opacity="1"/><text x="600" y="281" text-anchor="middle" font-size="11" font-family="Arial, sans-serif" font-weight="bold" fill="#333333" stroke="none" stroke-width="0" dominant-baseline="central">Custom</text><polygon points="150,391 178.5316954888546,411.72949016875157 167.6335575687742,445.27050983124843 132.3664424312258,445.27050983124843 121.46830451114539,411.72949016875157" fill="#87CEEB" stroke="#666666" stroke-width="2" opacity="1"/><text x="150" y="421" text-anchor="middle" font-size="11" font-family="Arial, sans-serif" font-weight="bold" fill="#333333" stroke="none" stroke-width="0" dominant-baseline="central">Pentagon</text><polygon points="330,391 351.2132034355964,399.7867965644036 360,421 351.2132034355964,442.2132034355964 330,451 308.7867965644036,442.2132034355964 300,421 308.7867965644036,399.7867965644036" fill="#DDA0DD" stroke="#666666" stroke-width="2" opacity="1"/><text x="330" y="421" text-anchor="middle" font-size="11" font-family="Arial, sans-serif" font-weight="bold" fill="#333333" stroke="none" stroke-width="0" dominant-baseline="central">Octagon</text><polygon points="510,391 517.0534230275097,411.2917960675006 538.5316954888546,411.72949016875157 521.4126781955418,424.7082039324994 527.6335575687742,445.27050983124843 510,433 492.36644243122583,445.27050983124843 498.58732180445816,424.7082039324994 481.4683045111454,411.72949016875157 502.94657697249033,411.2917960675006" fill="#F0E68C" stroke="#666666" stroke-width="2" opacity="1"/><text x="510" y="421" text-anchor="middle" font-size="11" font-family="Arial, sans-serif" font-weight="bold" fill="#333333" stroke="none" stroke-width="0" dominant-baseline="central">Star</text><path d="M 60 211 L 60 211 L 600 211 L 600 211" fill="none" stroke="black" stroke-width="1" opacity="1"/><path d="M 330 171 L 330 191 L 330 191 L 330 211" fill="none" stroke="black" stroke-width="1" opacity="1"/><path d="M 60 211 L 60 231 L 60 231 L 60 251" fill="none" stroke="black" stroke-width="1" opacity="1"/><path d="M 240 211 L 240 231 L 240 231 L 240 251" fill="none" stroke="black" stroke-width="1" opacity="1"/><path d="M 420 211 L 420 231 L 420 231 L 420 251" fill="none" stroke="black" stroke-width="1" opacity="1"/><path d="M 600 211 L 600 231 L 600 231 L 600 251" fill="none" stroke="black" stroke-width="1" opacity="1"/><path d="M 60 311 L 60 351 L 150 351 L 150 391" fill="none" stroke="black" stroke-width="1" opacity="1"/><path d="M 240 311 L 240 336 L 240 336 L 240 361" fill="none" stroke="black" stroke-width="1" opacity="1"/><path d="M 240 361 L 240 361 L 330 361 L 330 361" fill="none" stroke="black" stroke-width="1" opacity="1"/><path d="M 330 361 L 330 376 L 330 376 L 330 391" fill="none" stroke="black" stroke-width="1" opacity="1"/><path d="M 420 311 L 420 321 L 420 321 L 420 331" fill="none" stroke="black" stroke-width="1" opacity="1"/><path d="M 420 331 L 420 331 L 510 331 L 510 331" fill="none" stroke="black" stroke-width="1" opacity="1"/><path d="M 510 331 L 510 361 L 510 361 L 510 391" fill="none" stroke="black" stroke-width="1" opacity="1"/></svg>