<svg xmlns="http://www.w3.org/2000/svg" width="100%" height="100%" viewBox="0 0 760 682.8" preserveAspectRatio="xMidYMid meet" style="max-width: 760px; max-height: 682.8px;"><g class="chart-title-group"><text x="380" y="30" text-anchor="middle" dominant-baseline="central" font-size="14" font-family="Arial, sans-serif" font-weight="bold" fill="#333333" stroke="none" stroke-width="0">Human Evolution Tree</text><text x="380" y="51.8" text-anchor="middle" dominant-baseline="central" font-size="12" font-family="Arial, sans-serif" font-weight="normal" fill="#666666" stroke="none" stroke-width="0">Click the ▼ buttons to explore our evolutionary journey</text></g><g fill="#f8f9fa" stroke="#8B4513" stroke-width="2" opacity="1"><rect width="220" height="83.4" x="270" y="116.19999999999999" rx="8" ry="8" fill="#f8f9fa" stroke="#8B4513" stroke-width="2" opacity="1"/><text x="370" y="135.2" font-family="Arial, sans-serif" font-size="14" font-weight="bold" fill="#333" stroke="none" stroke-width="0" text-anchor="middle" dominant-baseline="alphabetic">Common Ancestor</text><text x="380" y="161" font-family="Arial, sans-serif" font-size="11" font-weight="normal" fill="#666666" stroke="none" stroke-width="0" text-anchor="middle" dominant-baseline="alphabetic">Shared ancestor of humans and other</text><text x="380" y="174.2" font-family="Arial, sans-serif" font-size="11" font-weight="normal" fill="#666666" stroke="none" stroke-width="0" text-anchor="middle" dominant-baseline="alphabetic">great apes, lived approximately 6-7 million</text><text x="380" y="187.4" font-family="Arial, sans-serif" font-size="11" font-weight="normal" fill="#666666" stroke="none" stroke-width="0" text-anchor="middle" dominant-baseline="alphabetic">years ago in Africa</text><g style="outline: none;"><rect x="466" y="123.79999999999998" width="20" height="20" fill="transparent" stroke="none" outline="none" cursor="pointer" style="outline: none; border: none;"/><path d="M 472 135.79999999999998 &#10;                       L 476 131.79999999999998 &#10;                       L 480 135.79999999999998" fill="none" stroke="#333" stroke-width="2" stroke-linecap="round" stroke-linejoin="round"/></g></g><g fill="#f8f9fa" stroke="#8B4513" stroke-width="2" opacity="1"><rect width="220" height="40" x="145" y="262.79999999999995" rx="8" ry="8" fill="#f8f9fa" stroke="#8B4513" stroke-width="2" opacity="1"/><text x="245" y="281.79999999999995" font-family="Arial, sans-serif" font-size="14" font-weight="bold" fill="#333" stroke="none" stroke-width="0" text-anchor="middle" dominant-baseline="alphabetic">Australopithecus</text><g style="outline: none;"><rect x="341" y="270.4" width="20" height="20" fill="transparent" stroke="none" outline="none" cursor="pointer" style="outline: none; border: none;"/><path d="M 347 278.4 &#10;                       L 351 282.4 &#10;                       L 355 278.4" fill="none" stroke="#333" stroke-width="2" stroke-linecap="round" stroke-linejoin="round"/></g></g><g fill="#f8f9fa" stroke="#8B4513" stroke-width="2" opacity="1"><rect width="220" height="40" x="395" y="262.79999999999995" rx="8" ry="8" fill="#f8f9fa" stroke="#8B4513" stroke-width="2" opacity="1"/><text x="495" y="281.79999999999995" font-family="Arial, sans-serif" font-size="14" font-weight="bold" fill="#333" stroke="none" stroke-width="0" text-anchor="middle" dominant-baseline="alphabetic">Other Great Apes</text><g style="outline: none;"><rect x="591" y="270.4" width="20" height="20" fill="transparent" stroke="none" outline="none" cursor="pointer" style="outline: none; border: none;"/><path d="M 597 278.4 &#10;                       L 601 282.4 &#10;                       L 605 278.4" fill="none" stroke="#333" stroke-width="2" stroke-linecap="round" stroke-linejoin="round"/></g></g><g fill="#f8f9fa" stroke="#8B4513" stroke-width="2" opacity="1"><rect width="220" height="40" x="20" y="382.79999999999995" rx="8" ry="8" fill="#f8f9fa" stroke="#8B4513" stroke-width="2" opacity="1"/><text x="120" y="401.79999999999995" font-family="Arial, sans-serif" font-size="14" font-weight="bold" fill="#333" stroke="none" stroke-width="0" text-anchor="middle" dominant-baseline="alphabetic">Homo habilis</text><g style="outline: none;"><rect x="216" y="390.4" width="20" height="20" fill="transparent" stroke="none" outline="none" cursor="pointer" style="outline: none; border: none;"/><path d="M 222 398.4 &#10;                       L 226 402.4 &#10;                       L 230 398.4" fill="none" stroke="#333" stroke-width="2" stroke-linecap="round" stroke-linejoin="round"/></g></g><g fill="#f8f9fa" stroke="#8B4513" stroke-width="2" opacity="1"><rect width="220" height="40" x="270" y="382.79999999999995" rx="8" ry="8" fill="#f8f9fa" stroke="#8B4513" stroke-width="2" opacity="1"/><text x="370" y="401.79999999999995" font-family="Arial, sans-serif" font-size="14" font-weight="bold" fill="#333" stroke="none" stroke-width="0" text-anchor="middle" dominant-baseline="alphabetic">Gorillas</text><g style="outline: none;"><rect x="466" y="390.4" width="20" height="20" fill="transparent" stroke="none" outline="none" cursor="pointer" style="outline: none; border: none;"/><path d="M 472 398.4 &#10;                       L 476 402.4 &#10;                       L 480 398.4" fill="none" stroke="#333" stroke-width="2" stroke-linecap="round" stroke-linejoin="round"/></g></g><g fill="#f8f9fa" stroke="#8B4513" stroke-width="2" opacity="1"><rect width="220" height="40" x="520" y="382.79999999999995" rx="8" ry="8" fill="#f8f9fa" stroke="#8B4513" stroke-width="2" opacity="1"/><text x="620" y="401.79999999999995" font-family="Arial, sans-serif" font-size="14" font-weight="bold" fill="#333" stroke="none" stroke-width="0" text-anchor="middle" dominant-baseline="alphabetic">Orangutans</text><g style="outline: none;"><rect x="716" y="390.4" width="20" height="20" fill="transparent" stroke="none" outline="none" cursor="pointer" style="outline: none; border: none;"/><path d="M 722 398.4 &#10;                       L 726 402.4 &#10;                       L 730 398.4" fill="none" stroke="#333" stroke-width="2" stroke-linecap="round" stroke-linejoin="round"/></g></g><g fill="#f8f9fa" stroke="#8B4513" stroke-width="2" opacity="1"><rect width="220" height="40" x="270" y="502.79999999999995" rx="8" ry="8" fill="#f8f9fa" stroke="#8B4513" stroke-width="2" opacity="1"/><text x="370" y="521.8" font-family="Arial, sans-serif" font-size="14" font-weight="bold" fill="#333" stroke="none" stroke-width="0" text-anchor="middle" dominant-baseline="alphabetic">Homo erectus</text><g style="outline: none;"><rect x="466" y="510.4" width="20" height="20" fill="transparent" stroke="none" outline="none" cursor="pointer" style="outline: none; border: none;"/><path d="M 472 518.4 &#10;                       L 476 522.4 &#10;                       L 480 518.4" fill="none" stroke="#333" stroke-width="2" stroke-linecap="round" stroke-linejoin="round"/></g></g><g fill="#f8f9fa" stroke="#8B4513" stroke-width="2" opacity="1"><rect width="220" height="40" x="145" y="622.8" rx="8" ry="8" fill="#f8f9fa" stroke="#8B4513" stroke-width="2" opacity="1"/><text x="245" y="641.8" font-family="Arial, sans-serif" font-size="14" font-weight="bold" fill="#333" stroke="none" stroke-width="0" text-anchor="middle" dominant-baseline="alphabetic">Homo neanderthalensis</text><g style="outline: none;"><rect x="341" y="630.4" width="20" height="20" fill="transparent" stroke="none" outline="none" cursor="pointer" style="outline: none; border: none;"/><path d="M 347 638.4 &#10;                       L 351 642.4 &#10;                       L 355 638.4" fill="none" stroke="#333" stroke-width="2" stroke-linecap="round" stroke-linejoin="round"/></g></g><g fill="#f8f9fa" stroke="#8B4513" stroke-width="2" opacity="1"><rect width="220" height="40" x="395" y="622.8" rx="8" ry="8" fill="#f8f9fa" stroke="#8B4513" stroke-width="2" opacity="1"/><text x="495" y="641.8" font-family="Arial, sans-serif" font-size="14" font-weight="bold" fill="#333" stroke="none" stroke-width="0" text-anchor="middle" dominant-baseline="alphabetic">Homo sapiens</text><g style="outline: none;"><rect x="591" y="630.4" width="20" height="20" fill="transparent" stroke="none" outline="none" cursor="pointer" style="outline: none; border: none;"/><path d="M 597 638.4 &#10;                       L 601 642.4 &#10;                       L 605 638.4" fill="none" stroke="#333" stroke-width="2" stroke-linecap="round" stroke-linejoin="round"/></g></g><path d="M 380 199.6 L 380 211.2 L 380 211.2 L 380 222.79999999999995" fill="none" stroke="#8B4513" stroke-width="2" opacity="1"/><path d="M 255 222.79999999999995 L 255 222.79999999999995 L 505 222.79999999999995 L 505 222.79999999999995" fill="none" stroke="#8B4513" stroke-width="2" opacity="1"/><path d="M 255 222.79999999999995 L 255 242.79999999999995 L 255 242.79999999999995 L 255 262.79999999999995" fill="none" stroke="#8B4513" stroke-width="2" opacity="1"/><path d="M 505 222.79999999999995 L 505 242.79999999999995 L 505 242.79999999999995 L 505 262.79999999999995" fill="none" stroke="#8B4513" stroke-width="2" opacity="1"/><path d="M 255 302.79999999999995 L 255 322.79999999999995 L 255 322.79999999999995 L 255 342.79999999999995" fill="none" stroke="#8B4513" stroke-width="2" opacity="1"/><path d="M 255 342.79999999999995 L 255 342.79999999999995 L 130 342.79999999999995 L 130 342.79999999999995" fill="none" stroke="#8B4513" stroke-width="2" opacity="1"/><path d="M 130 342.79999999999995 L 130 362.79999999999995 L 130 362.79999999999995 L 130 382.79999999999995" fill="none" stroke="#8B4513" stroke-width="2" opacity="1"/><path d="M 505 302.79999999999995 L 505 317.79999999999995 L 505 317.79999999999995 L 505 332.79999999999995" fill="none" stroke="#8B4513" stroke-width="2" opacity="1"/><path d="M 380 332.79999999999995 L 380 332.79999999999995 L 630 332.79999999999995 L 630 332.79999999999995" fill="none" stroke="#8B4513" stroke-width="2" opacity="1"/><path d="M 380 332.79999999999995 L 380 357.79999999999995 L 380 357.79999999999995 L 380 382.79999999999995" fill="none" stroke="#8B4513" stroke-width="2" opacity="1"/><path d="M 630 332.79999999999995 L 630 357.79999999999995 L 630 357.79999999999995 L 630 382.79999999999995" fill="none" stroke="#8B4513" stroke-width="2" opacity="1"/><path d="M 130 422.79999999999995 L 130 442.79999999999995 L 130 442.79999999999995 L 130 462.79999999999995" fill="none" stroke="#8B4513" stroke-width="2" opacity="1"/><path d="M 130 462.79999999999995 L 130 462.79999999999995 L 380 462.79999999999995 L 380 462.79999999999995" fill="none" stroke="#8B4513" stroke-width="2" opacity="1"/><path d="M 380 462.79999999999995 L 380 482.79999999999995 L 380 482.79999999999995 L 380 502.79999999999995" fill="none" stroke="#8B4513" stroke-width="2" opacity="1"/><path d="M 380 542.8 L 380 567.8 L 380 567.8 L 380 592.8" fill="none" stroke="#8B4513" stroke-width="2" opacity="1"/><path d="M 255 592.8 L 255 592.8 L 505 592.8 L 505 592.8" fill="none" stroke="#8B4513" stroke-width="2" opacity="1"/><path d="M 255 592.8 L 255 607.8 L 255 607.8 L 255 622.8" fill="none" stroke="#8B4513" stroke-width="2" opacity="1"/><path d="M 505 592.8 L 505 607.8 L 505 607.8 L 505 622.8" fill="none" stroke="#8B4513" stroke-width="2" opacity="1"/></svg>