<svg xmlns="http://www.w3.org/2000/svg" width="100%" height="100%" viewBox="0 0 720 556.2" preserveAspectRatio="xMidYMid meet" style="max-width: 720px; max-height: 556.2px;"><g class="chart-title-group"><text x="360" y="30" text-anchor="middle" dominant-baseline="central" font-size="14" font-family="Arial, sans-serif" font-weight="bold" fill="#333333" stroke="none" stroke-width="0">React Project Structure</text><text x="360" y="51.8" text-anchor="middle" dominant-baseline="central" font-size="12" font-family="Arial, sans-serif" font-weight="normal" fill="#666666" stroke="none" stroke-width="0">Modern web application folder hierarchy</text></g><g fill="#3B82F6" stroke="#1E40AF" stroke-width="2" opacity="1"><path d="M 10,15 L 10,50 L 70,50 L 70,25 L 60,15 L 10,15 Z M 10,15 L 50,15 L 60,25 L 10,25 Z" transform="translate(20, 116.19999999999999)" fill="#3B82F6" stroke="#1E40AF" stroke-width="2" opacity="1"/><text x="60" y="146.2" text-anchor="middle" dominant-baseline="middle" font-family="Arial, sans-serif" font-size="11" font-weight="bold" fill="white" stroke="none" stroke-width="0">react-app</text></g><g fill="#3B82F6" stroke="#1E40AF" stroke-width="2" opacity="1"><path d="M 10,15 L 10,50 L 70,50 L 70,25 L 60,15 L 10,15 Z M 10,15 L 50,15 L 60,25 L 10,25 Z" transform="translate(20, 236.2)" fill="#3B82F6" stroke="#1E40AF" stroke-width="2" opacity="1"/><text x="60" y="266.2" text-anchor="middle" dominant-baseline="middle" font-family="Arial, sans-serif" font-size="11" font-weight="bold" fill="white" stroke="none" stroke-width="0">public</text></g><g fill="#3B82F6" stroke="#1E40AF" stroke-width="2" opacity="1"><path d="M 10,15 L 10,50 L 70,50 L 70,25 L 60,15 L 10,15 Z M 10,15 L 50,15 L 60,25 L 10,25 Z" transform="translate(220, 236.2)" fill="#3B82F6" stroke="#1E40AF" stroke-width="2" opacity="1"/><text x="260" y="266.2" text-anchor="middle" dominant-baseline="middle" font-family="Arial, sans-serif" font-size="11" font-weight="bold" fill="white" stroke="none" stroke-width="0">src</text></g><g fill="#68A063" stroke="#5A8B56" stroke-width="2" opacity="1"><path d="M 15,10 L 15,50 L 65,50 L 65,20 L 55,10 L 15,10 Z M 55,10 L 55,20 L 65,20" transform="translate(420, 236.2)" fill="#68A063" stroke="#5A8B56" stroke-width="2" opacity="1"/><text x="460" y="266.2" text-anchor="middle" dominant-baseline="middle" font-family="Arial, sans-serif" font-size="11" font-weight="bold" fill="white" stroke="none" stroke-width="0">package.json</text></g><g fill="#E34F26" stroke="#C1341A" stroke-width="2" opacity="1"><path d="M 15,10 L 15,50 L 65,50 L 65,20 L 55,10 L 15,10 Z M 55,10 L 55,20 L 65,20" transform="translate(20, 356.2)" fill="#E34F26" stroke="#C1341A" stroke-width="2" opacity="1"/><text x="60" y="386.2" text-anchor="middle" dominant-baseline="middle" font-family="Arial, sans-serif" font-size="11" font-weight="bold" fill="white" stroke="none" stroke-width="0">index.html</text></g><g fill="#3B82F6" stroke="#1E40AF" stroke-width="2" opacity="1"><path d="M 10,15 L 10,50 L 70,50 L 70,25 L 60,15 L 10,15 Z M 10,15 L 50,15 L 60,25 L 10,25 Z" transform="translate(220, 356.2)" fill="#3B82F6" stroke="#1E40AF" stroke-width="2" opacity="1"/><text x="260" y="386.2" text-anchor="middle" dominant-baseline="middle" font-family="Arial, sans-serif" font-size="11" font-weight="bold" fill="white" stroke="none" stroke-width="0">components</text></g><g fill="#3B82F6" stroke="#1E40AF" stroke-width="2" opacity="1"><path d="M 10,15 L 10,50 L 70,50 L 70,25 L 60,15 L 10,15 Z M 10,15 L 50,15 L 60,25 L 10,25 Z" transform="translate(420, 356.2)" fill="#3B82F6" stroke="#1E40AF" stroke-width="2" opacity="1"/><text x="460" y="386.2" text-anchor="middle" dominant-baseline="middle" font-family="Arial, sans-serif" font-size="11" font-weight="bold" fill="white" stroke="none" stroke-width="0">pages</text></g><g fill="#61DAFB" stroke="#21A5C4" stroke-width="2" opacity="1"><path d="M 15,10 L 15,50 L 65,50 L 65,20 L 55,10 L 15,10 Z M 55,10 L 55,20 L 65,20" transform="translate(620, 356.2)" fill="#61DAFB" stroke="#21A5C4" stroke-width="2" opacity="1"/><text x="660" y="386.2" text-anchor="middle" dominant-baseline="middle" font-family="Arial, sans-serif" font-size="11" font-weight="bold" fill="white" stroke="none" stroke-width="0">App.jsx</text></g><g fill="#61DAFB" stroke="#21A5C4" stroke-width="2" opacity="1"><path d="M 15,10 L 15,50 L 65,50 L 65,20 L 55,10 L 15,10 Z M 55,10 L 55,20 L 65,20" transform="translate(20, 476.2)" fill="#61DAFB" stroke="#21A5C4" stroke-width="2" opacity="1"/><text x="60" y="506.2" text-anchor="middle" dominant-baseline="middle" font-family="Arial, sans-serif" font-size="11" font-weight="bold" fill="white" stroke="none" stroke-width="0">Header.jsx</text></g><g fill="#61DAFB" stroke="#21A5C4" stroke-width="2" opacity="1"><path d="M 15,10 L 15,50 L 65,50 L 65,20 L 55,10 L 15,10 Z M 55,10 L 55,20 L 65,20" transform="translate(220, 476.2)" fill="#61DAFB" stroke="#21A5C4" stroke-width="2" opacity="1"/><text x="260" y="506.2" text-anchor="middle" dominant-baseline="middle" font-family="Arial, sans-serif" font-size="11" font-weight="bold" fill="white" stroke="none" stroke-width="0">Button.jsx</text></g><g fill="#61DAFB" stroke="#21A5C4" stroke-width="2" opacity="1"><path d="M 15,10 L 15,50 L 65,50 L 65,20 L 55,10 L 15,10 Z M 55,10 L 55,20 L 65,20" transform="translate(420, 476.2)" fill="#61DAFB" stroke="#21A5C4" stroke-width="2" opacity="1"/><text x="460" y="506.2" text-anchor="middle" dominant-baseline="middle" font-family="Arial, sans-serif" font-size="11" font-weight="bold" fill="white" stroke="none" stroke-width="0">Home.jsx</text></g><g fill="#61DAFB" stroke="#21A5C4" stroke-width="2" opacity="1"><path d="M 15,10 L 15,50 L 65,50 L 65,20 L 55,10 L 15,10 Z M 55,10 L 55,20 L 65,20" transform="translate(620, 476.2)" fill="#61DAFB" stroke="#21A5C4" stroke-width="2" opacity="1"/><text x="660" y="506.2" text-anchor="middle" dominant-baseline="middle" font-family="Arial, sans-serif" font-size="11" font-weight="bold" fill="white" stroke="none" stroke-width="0">About.jsx</text></g><path d="M 60 176.2 L 60 191.2 L 60 191.2 L 60 206.2" fill="none" stroke="#6B7280" stroke-width="2" opacity="1"/><path d="M 60 206.2 L 60 206.2 L 460 206.2 L 460 206.2" fill="none" stroke="#6B7280" stroke-width="2" opacity="1"/><path d="M 60 206.2 L 60 221.2 L 60 221.2 L 60 236.2" fill="none" stroke="#6B7280" stroke-width="2" opacity="1"/><path d="M 260 206.2 L 260 221.2 L 260 221.2 L 260 236.2" fill="none" stroke="#6B7280" stroke-width="2" opacity="1"/><path d="M 460 206.2 L 460 221.2 L 460 221.2 L 460 236.2" fill="none" stroke="#6B7280" stroke-width="2" opacity="1"/><path d="M 60 296.2 L 60 311.2 L 60 311.2 L 60 326.2" fill="none" stroke="#6B7280" stroke-width="2" opacity="1"/><path d="M 60 326.2 L 60 326.2 L 60 326.2 L 60 326.2" fill="none" stroke="#6B7280" stroke-width="2" opacity="1"/><path d="M 60 326.2 L 60 341.2 L 60 341.2 L 60 356.2" fill="none" stroke="#6B7280" stroke-width="2" opacity="1"/><path d="M 260 296.2 L 260 306.2 L 260 306.2 L 260 316.2" fill="none" stroke="#6B7280" stroke-width="2" opacity="1"/><path d="M 260 316.2 L 260 316.2 L 660 316.2 L 660 316.2" fill="none" stroke="#6B7280" stroke-width="2" opacity="1"/><path d="M 260 316.2 L 260 336.2 L 260 336.2 L 260 356.2" fill="none" stroke="#6B7280" stroke-width="2" opacity="1"/><path d="M 460 316.2 L 460 336.2 L 460 336.2 L 460 356.2" fill="none" stroke="#6B7280" stroke-width="2" opacity="1"/><path d="M 660 316.2 L 660 336.2 L 660 336.2 L 660 356.2" fill="none" stroke="#6B7280" stroke-width="2" opacity="1"/><path d="M 260 416.2 L 260 436.2 L 260 436.2 L 260 456.2" fill="none" stroke="#6B7280" stroke-width="2" opacity="1"/><path d="M 60 456.2 L 60 456.2 L 260 456.2 L 260 456.2" fill="none" stroke="#6B7280" stroke-width="2" opacity="1"/><path d="M 60 456.2 L 60 466.2 L 60 466.2 L 60 476.2" fill="none" stroke="#6B7280" stroke-width="2" opacity="1"/><path d="M 260 456.2 L 260 466.2 L 260 466.2 L 260 476.2" fill="none" stroke="#6B7280" stroke-width="2" opacity="1"/><path d="M 460 416.2 L 460 421.2 L 460 421.2 L 460 426.2" fill="none" stroke="#6B7280" stroke-width="2" opacity="1"/><path d="M 460 426.2 L 460 426.2 L 660 426.2 L 660 426.2" fill="none" stroke="#6B7280" stroke-width="2" opacity="1"/><path d="M 460 426.2 L 460 451.2 L 460 451.2 L 460 476.2" fill="none" stroke="#6B7280" stroke-width="2" opacity="1"/><path d="M 660 426.2 L 660 451.2 L 660 451.2 L 660 476.2" fill="none" stroke="#6B7280" stroke-width="2" opacity="1"/></svg>