<svg xmlns="http://www.w3.org/2000/svg" width="100%" height="100%" viewBox="0 0 1030 576.2" preserveAspectRatio="xMidYMid meet" style="max-width: 1030px; max-height: 576.2px;"><g class="chart-title-group"><text x="515" y="30" text-anchor="middle" dominant-baseline="central" font-size="14" font-family="Arial, sans-serif" font-weight="bold" fill="#333333" stroke="none" stroke-width="0">Company Organization Chart</text><text x="515" y="51.8" text-anchor="middle" dominant-baseline="central" font-size="12" font-family="Arial, sans-serif" font-weight="normal" fill="#666666" stroke="none" stroke-width="0">Hierarchical view of company structure</text></g><g fill="#4CAF50" stroke="black" stroke-width="1" opacity="1"><rect width="140" height="50" x="445" y="116.19999999999999" rx="8" ry="8" fill="#4CAF50" stroke="black" stroke-width="1" opacity="1"/><text x="515" y="141.2" text-anchor="middle" dominant-baseline="middle" font-family="Arial, sans-serif" font-size="12" font-weight="bold" fill="white" stroke="none" stroke-width="0">CEO</text></g><g fill="#4CAF50" stroke="black" stroke-width="1" opacity="1"><rect width="140" height="50" x="275" y="246.2" rx="8" ry="8" fill="#4CAF50" stroke="black" stroke-width="1" opacity="1"/><text x="345" y="271.2" text-anchor="middle" dominant-baseline="middle" font-family="Arial, sans-serif" font-size="12" font-weight="bold" fill="white" stroke="none" stroke-width="0">Engineering</text></g><g fill="#4CAF50" stroke="black" stroke-width="1" opacity="1"><rect width="140" height="50" x="445" y="246.2" rx="8" ry="8" fill="#4CAF50" stroke="black" stroke-width="1" opacity="1"/><text x="515" y="271.2" text-anchor="middle" dominant-baseline="middle" font-family="Arial, sans-serif" font-size="12" font-weight="bold" fill="white" stroke="none" stroke-width="0">Marketing</text></g><g fill="#4CAF50" stroke="black" stroke-width="1" opacity="1"><rect width="140" height="50" x="615" y="246.2" rx="8" ry="8" fill="#4CAF50" stroke="black" stroke-width="1" opacity="1"/><text x="685" y="271.2" text-anchor="middle" dominant-baseline="middle" font-family="Arial, sans-serif" font-size="12" font-weight="bold" fill="white" stroke="none" stroke-width="0">Sales</text></g><g fill="#4CAF50" stroke="black" stroke-width="1" opacity="1"><rect width="140" height="50" x="20" y="376.2" rx="8" ry="8" fill="#4CAF50" stroke="black" stroke-width="1" opacity="1"/><text x="90" y="401.2" text-anchor="middle" dominant-baseline="middle" font-family="Arial, sans-serif" font-size="12" font-weight="bold" fill="white" stroke="none" stroke-width="0">Developers Team</text></g><g fill="#4CAF50" stroke="black" stroke-width="1" opacity="1"><rect width="140" height="50" x="190" y="376.2" rx="8" ry="8" fill="#4CAF50" stroke="black" stroke-width="1" opacity="1"/><text x="260" y="401.2" text-anchor="middle" dominant-baseline="middle" font-family="Arial, sans-serif" font-size="12" font-weight="bold" fill="white" stroke="none" stroke-width="0">DevOps Team</text></g><g fill="#4CAF50" stroke="black" stroke-width="1" opacity="1"><rect width="140" height="50" x="360" y="376.2" rx="8" ry="8" fill="#4CAF50" stroke="black" stroke-width="1" opacity="1"/><text x="430" y="401.2" text-anchor="middle" dominant-baseline="middle" font-family="Arial, sans-serif" font-size="12" font-weight="bold" fill="white" stroke="none" stroke-width="0">Content Team</text></g><g fill="#4CAF50" stroke="black" stroke-width="1" opacity="1"><rect width="140" height="50" x="530" y="376.2" rx="8" ry="8" fill="#4CAF50" stroke="black" stroke-width="1" opacity="1"/><text x="600" y="401.2" text-anchor="middle" dominant-baseline="middle" font-family="Arial, sans-serif" font-size="12" font-weight="bold" fill="white" stroke="none" stroke-width="0">Design Team</text></g><g fill="#4CAF50" stroke="black" stroke-width="1" opacity="1"><rect width="140" height="50" x="700" y="376.2" rx="8" ry="8" fill="#4CAF50" stroke="black" stroke-width="1" opacity="1"/><text x="770" y="401.2" text-anchor="middle" dominant-baseline="middle" font-family="Arial, sans-serif" font-size="12" font-weight="bold" fill="white" stroke="none" stroke-width="0">Enterprise Sales</text></g><g fill="#4CAF50" stroke="black" stroke-width="1" opacity="1"><rect width="140" height="50" x="870" y="376.2" rx="8" ry="8" fill="#4CAF50" stroke="black" stroke-width="1" opacity="1"/><text x="940" y="401.2" text-anchor="middle" dominant-baseline="middle" font-family="Arial, sans-serif" font-size="12" font-weight="bold" fill="white" stroke="none" stroke-width="0">SMB Sales</text></g><g fill="#4CAF50" stroke="black" stroke-width="1" opacity="1"><rect width="140" height="50" x="360" y="506.2" rx="8" ry="8" fill="#4CAF50" stroke="black" stroke-width="1" opacity="1"/><text x="430" y="531.2" text-anchor="middle" dominant-baseline="middle" font-family="Arial, sans-serif" font-size="12" font-weight="bold" fill="white" stroke="none" stroke-width="0">Frontend Team</text></g><g fill="#4CAF50" stroke="black" stroke-width="1" opacity="1"><rect width="140" height="50" x="530" y="506.2" rx="8" ry="8" fill="#4CAF50" stroke="black" stroke-width="1" opacity="1"/><text x="600" y="531.2" text-anchor="middle" dominant-baseline="middle" font-family="Arial, sans-serif" font-size="12" font-weight="bold" fill="white" stroke="none" stroke-width="0">Backend Team</text></g><path d="M 515 166.2 L 515 186.2 L 515 186.2 L 515 206.2" fill="none" stroke="#333" stroke-width="2" opacity="1"/><path d="M 345 206.2 L 345 206.2 L 685 206.2 L 685 206.2" fill="none" stroke="#333" stroke-width="2" opacity="1"/><path d="M 345 206.2 L 345 226.2 L 345 226.2 L 345 246.2" fill="none" stroke="#333" stroke-width="2" opacity="1"/><path d="M 515 206.2 L 515 226.2 L 515 226.2 L 515 246.2" fill="none" stroke="#333" stroke-width="2" opacity="1"/><path d="M 685 206.2 L 685 226.2 L 685 226.2 L 685 246.2" fill="none" stroke="#333" stroke-width="2" opacity="1"/><path d="M 345 296.2 L 345 311.2 L 345 311.2 L 345 326.2" fill="none" stroke="#333" stroke-width="2" opacity="1"/><path d="M 90 326.2 L 90 326.2 L 345 326.2 L 345 326.2" fill="none" stroke="#333" stroke-width="2" opacity="1"/><path d="M 90 326.2 L 90 351.2 L 90 351.2 L 90 376.2" fill="none" stroke="#333" stroke-width="2" opacity="1"/><path d="M 260 326.2 L 260 351.2 L 260 351.2 L 260 376.2" fill="none" stroke="#333" stroke-width="2" opacity="1"/><path d="M 515 296.2 L 515 321.2 L 515 321.2 L 515 346.2" fill="none" stroke="#333" stroke-width="2" opacity="1"/><path d="M 430 346.2 L 430 346.2 L 600 346.2 L 600 346.2" fill="none" stroke="#333" stroke-width="2" opacity="1"/><path d="M 430 346.2 L 430 361.2 L 430 361.2 L 430 376.2" fill="none" stroke="#333" stroke-width="2" opacity="1"/><path d="M 600 346.2 L 600 361.2 L 600 361.2 L 600 376.2" fill="none" stroke="#333" stroke-width="2" opacity="1"/><path d="M 685 296.2 L 685 306.2 L 685 306.2 L 685 316.2" fill="none" stroke="#333" stroke-width="2" opacity="1"/><path d="M 685 316.2 L 685 316.2 L 940 316.2 L 940 316.2" fill="none" stroke="#333" stroke-width="2" opacity="1"/><path d="M 770 316.2 L 770 346.2 L 770 346.2 L 770 376.2" fill="none" stroke="#333" stroke-width="2" opacity="1"/><path d="M 940 316.2 L 940 346.2 L 940 346.2 L 940 376.2" fill="none" stroke="#333" stroke-width="2" opacity="1"/><path d="M 90 426.2 L 90 456.2 L 90 456.2 L 90 486.2" fill="none" stroke="#333" stroke-width="2" opacity="1"/><path d="M 90 486.2 L 90 486.2 L 600 486.2 L 600 486.2" fill="none" stroke="#333" stroke-width="2" opacity="1"/><path d="M 430 486.2 L 430 496.2 L 430 496.2 L 430 506.2" fill="none" stroke="#333" stroke-width="2" opacity="1"/><path d="M 600 486.2 L 600 496.2 L 600 496.2 L 600 506.2" fill="none" stroke="#333" stroke-width="2" opacity="1"/></svg>