<svg xmlns="http://www.w3.org/2000/svg" width="100%" height="100%" viewBox="0 0 860 506.2" preserveAspectRatio="xMidYMid meet" style="max-width: 860px; max-height: 506.2px;"><g class="chart-title-group"><text x="430" y="30" text-anchor="middle" dominant-baseline="central" font-size="14" font-family="Arial, sans-serif" font-weight="bold" fill="#333333" stroke="none" stroke-width="0">Johnson Family Tree</text><text x="430" y="51.8" text-anchor="middle" dominant-baseline="central" font-size="12" font-family="Arial, sans-serif" font-weight="normal" fill="#666666" stroke="none" stroke-width="0">Three generations of the Johnson family</text></g><g fill="#f8f9fa" stroke="black" stroke-width="1" opacity="1"><rect width="140" height="70" x="360" y="116.19999999999999" rx="6" ry="6" fill="#f8f9fa" stroke="black" stroke-width="1" opacity="1"/><text x="430" y="135.2" font-family="Arial, sans-serif" font-size="14" font-weight="bold" fill="#333" stroke="none" stroke-width="0" text-anchor="middle" dominant-baseline="alphabetic">Robert Johnson</text><text x="430" y="161" font-family="Arial, sans-serif" font-size="11" font-weight="normal" fill="#666666" stroke="none" stroke-width="0" text-anchor="middle" dominant-baseline="alphabetic">Born: 1945</text></g><g fill="#f8f9fa" stroke="black" stroke-width="1" opacity="1"><rect width="140" height="70" x="190" y="266.2" rx="6" ry="6" fill="#f8f9fa" stroke="black" stroke-width="1" opacity="1"/><text x="260" y="285.2" font-family="Arial, sans-serif" font-size="14" font-weight="bold" fill="#333" stroke="none" stroke-width="0" text-anchor="middle" dominant-baseline="alphabetic">Michael Johnson</text><text x="260" y="311" font-family="Arial, sans-serif" font-size="11" font-weight="normal" fill="#666666" stroke="none" stroke-width="0" text-anchor="middle" dominant-baseline="alphabetic">Born: 1970 | Software</text><text x="260" y="324.2" font-family="Arial, sans-serif" font-size="11" font-weight="normal" fill="#666666" stroke="none" stroke-width="0" text-anchor="middle" dominant-baseline="alphabetic">Engineer</text></g><g fill="#f8f9fa" stroke="black" stroke-width="1" opacity="1"><rect width="140" height="70" x="360" y="266.2" rx="6" ry="6" fill="#f8f9fa" stroke="black" stroke-width="1" opacity="1"/><text x="430" y="285.2" font-family="Arial, sans-serif" font-size="14" font-weight="bold" fill="#333" stroke="none" stroke-width="0" text-anchor="middle" dominant-baseline="alphabetic">Sarah</text><text x="430" y="302" font-family="Arial, sans-serif" font-size="14" font-weight="bold" fill="#333" stroke="none" stroke-width="0" text-anchor="middle" dominant-baseline="alphabetic">Johnson-Smith</text><text x="430" y="327.8" font-family="Arial, sans-serif" font-size="11" font-weight="normal" fill="#666666" stroke="none" stroke-width="0" text-anchor="middle" dominant-baseline="alphabetic">Born: 1972 | Doctor</text></g><g fill="#f8f9fa" stroke="black" stroke-width="1" opacity="1"><rect width="140" height="70" x="530" y="266.2" rx="6" ry="6" fill="#f8f9fa" stroke="black" stroke-width="1" opacity="1"/><text x="600" y="285.2" font-family="Arial, sans-serif" font-size="14" font-weight="bold" fill="#333" stroke="none" stroke-width="0" text-anchor="middle" dominant-baseline="alphabetic">David Johnson</text><text x="600" y="311" font-family="Arial, sans-serif" font-size="11" font-weight="normal" fill="#666666" stroke="none" stroke-width="0" text-anchor="middle" dominant-baseline="alphabetic">Born: 1975 | Teacher</text></g><g fill="#f8f9fa" stroke="black" stroke-width="1" opacity="1"><rect width="140" height="70" x="20" y="416.2" rx="6" ry="6" fill="#f8f9fa" stroke="black" stroke-width="1" opacity="1"/><text x="90" y="435.2" font-family="Arial, sans-serif" font-size="14" font-weight="bold" fill="#333" stroke="none" stroke-width="0" text-anchor="middle" dominant-baseline="alphabetic">Emma Johnson</text><text x="90" y="461" font-family="Arial, sans-serif" font-size="11" font-weight="normal" fill="#666666" stroke="none" stroke-width="0" text-anchor="middle" dominant-baseline="alphabetic">Born: 2000 | Student</text></g><g fill="#f8f9fa" stroke="black" stroke-width="1" opacity="1"><rect width="140" height="70" x="190" y="416.2" rx="6" ry="6" fill="#f8f9fa" stroke="black" stroke-width="1" opacity="1"/><text x="260" y="435.2" font-family="Arial, sans-serif" font-size="14" font-weight="bold" fill="#333" stroke="none" stroke-width="0" text-anchor="middle" dominant-baseline="alphabetic">James Johnson</text><text x="260" y="461" font-family="Arial, sans-serif" font-size="11" font-weight="normal" fill="#666666" stroke="none" stroke-width="0" text-anchor="middle" dominant-baseline="alphabetic">Born: 2003 | High School</text></g><g fill="#f8f9fa" stroke="black" stroke-width="1" opacity="1"><rect width="140" height="70" x="360" y="416.2" rx="6" ry="6" fill="#f8f9fa" stroke="black" stroke-width="1" opacity="1"/><text x="430" y="435.2" font-family="Arial, sans-serif" font-size="14" font-weight="bold" fill="#333" stroke="none" stroke-width="0" text-anchor="middle" dominant-baseline="alphabetic">Oliver Smith</text><text x="430" y="461" font-family="Arial, sans-serif" font-size="11" font-weight="normal" fill="#666666" stroke="none" stroke-width="0" text-anchor="middle" dominant-baseline="alphabetic">Born: 1998 | College</text><text x="430" y="474.2" font-family="Arial, sans-serif" font-size="11" font-weight="normal" fill="#666666" stroke="none" stroke-width="0" text-anchor="middle" dominant-baseline="alphabetic">Graduate</text></g><g fill="#f8f9fa" stroke="black" stroke-width="1" opacity="1"><rect width="140" height="70" x="530" y="416.2" rx="6" ry="6" fill="#f8f9fa" stroke="black" stroke-width="1" opacity="1"/><text x="600" y="435.2" font-family="Arial, sans-serif" font-size="14" font-weight="bold" fill="#333" stroke="none" stroke-width="0" text-anchor="middle" dominant-baseline="alphabetic">Sophia Smith</text><text x="600" y="461" font-family="Arial, sans-serif" font-size="11" font-weight="normal" fill="#666666" stroke="none" stroke-width="0" text-anchor="middle" dominant-baseline="alphabetic">Born: 2001 | University</text><text x="600" y="474.2" font-family="Arial, sans-serif" font-size="11" font-weight="normal" fill="#666666" stroke="none" stroke-width="0" text-anchor="middle" dominant-baseline="alphabetic">Student</text></g><g fill="#f8f9fa" stroke="black" stroke-width="1" opacity="1"><rect width="140" height="70" x="700" y="416.2" rx="6" ry="6" fill="#f8f9fa" stroke="black" stroke-width="1" opacity="1"/><text x="770" y="435.2" font-family="Arial, sans-serif" font-size="14" font-weight="bold" fill="#333" stroke="none" stroke-width="0" text-anchor="middle" dominant-baseline="alphabetic">Lucas Johnson</text><text x="770" y="461" font-family="Arial, sans-serif" font-size="11" font-weight="normal" fill="#666666" stroke="none" stroke-width="0" text-anchor="middle" dominant-baseline="alphabetic">Born: 2005 | Middle</text><text x="770" y="474.2" font-family="Arial, sans-serif" font-size="11" font-weight="normal" fill="#666666" stroke="none" stroke-width="0" text-anchor="middle" dominant-baseline="alphabetic">School</text></g><path d="M 430 186.2 L 430 206.2 L 430 206.2 L 430 226.2" fill="none" stroke="#8B4513" stroke-width="2" opacity="1"/><path d="M 260 226.2 L 260 226.2 L 600 226.2 L 600 226.2" fill="none" stroke="#8B4513" stroke-width="2" opacity="1"/><path d="M 260 226.2 L 260 246.2 L 260 246.2 L 260 266.2" fill="none" stroke="#8B4513" stroke-width="2" opacity="1"/><path d="M 430 226.2 L 430 246.2 L 430 246.2 L 430 266.2" fill="none" stroke="#8B4513" stroke-width="2" opacity="1"/><path d="M 600 226.2 L 600 246.2 L 600 246.2 L 600 266.2" fill="none" stroke="#8B4513" stroke-width="2" opacity="1"/><path d="M 260 336.2 L 260 351.2 L 260 351.2 L 260 366.2" fill="none" stroke="#8B4513" stroke-width="2" opacity="1"/><path d="M 90 366.2 L 90 366.2 L 260 366.2 L 260 366.2" fill="none" stroke="#8B4513" stroke-width="2" opacity="1"/><path d="M 90 366.2 L 90 391.2 L 90 391.2 L 90 416.2" fill="none" stroke="#8B4513" stroke-width="2" opacity="1"/><path d="M 260 366.2 L 260 391.2 L 260 391.2 L 260 416.2" fill="none" stroke="#8B4513" stroke-width="2" opacity="1"/><path d="M 430 336.2 L 430 361.2 L 430 361.2 L 430 386.2" fill="none" stroke="#8B4513" stroke-width="2" opacity="1"/><path d="M 430 386.2 L 430 386.2 L 600 386.2 L 600 386.2" fill="none" stroke="#8B4513" stroke-width="2" opacity="1"/><path d="M 430 386.2 L 430 401.2 L 430 401.2 L 430 416.2" fill="none" stroke="#8B4513" stroke-width="2" opacity="1"/><path d="M 600 386.2 L 600 401.2 L 600 401.2 L 600 416.2" fill="none" stroke="#8B4513" stroke-width="2" opacity="1"/><path d="M 600 336.2 L 600 356.2 L 600 356.2 L 600 376.2" fill="none" stroke="#8B4513" stroke-width="2" opacity="1"/><path d="M 600 376.2 L 600 376.2 L 770 376.2 L 770 376.2" fill="none" stroke="#8B4513" stroke-width="2" opacity="1"/><path d="M 770 376.2 L 770 396.2 L 770 396.2 L 770 416.2" fill="none" stroke="#8B4513" stroke-width="2" opacity="1"/></svg>