<svg xmlns="http://www.w3.org/2000/svg" width="100%" height="100%" viewBox="0 0 530 416.2" preserveAspectRatio="xMidYMid meet" style="max-width: 530px; max-height: 416.2px;"><g class="chart-title-group"><text x="265" y="30" text-anchor="middle" dominant-baseline="central" font-size="14" font-family="Arial, sans-serif" font-weight="bold" fill="#333333" stroke="none" stroke-width="0">Tournament Semi-Finals &amp; Final</text><text x="265" y="51.8" text-anchor="middle" dominant-baseline="central" font-size="12" font-family="Arial, sans-serif" font-weight="normal" fill="#666666" stroke="none" stroke-width="0">4-team tournament bracket with semi-finals and final</text></g><g fill="#FFD700" stroke="#FFA500" stroke-width="2" opacity="1"><rect width="120" height="52" x="205" y="116.19999999999999" rx="6" ry="6" fill="#FFD700" stroke="#FFA500" stroke-width="2" opacity="1"/><text x="265" y="135.2" font-family="Arial, sans-serif" font-size="14" font-weight="bold" fill="#333" stroke="none" stroke-width="0" text-anchor="middle" dominant-baseline="alphabetic">Final</text><text x="265" y="161" font-family="Arial, sans-serif" font-size="11" font-weight="normal" fill="#666666" stroke="none" stroke-width="0" text-anchor="middle" dominant-baseline="alphabetic">Brazil vs France</text></g><g fill="#4CAF50" stroke="#2E7D32" stroke-width="2" opacity="1"><rect width="130" height="52" x="120" y="236.2" rx="6" ry="6" fill="#4CAF50" stroke="#2E7D32" stroke-width="2" opacity="1"/><text x="185" y="255.2" font-family="Arial, sans-serif" font-size="14" font-weight="bold" fill="white" stroke="none" stroke-width="0" text-anchor="middle" dominant-baseline="alphabetic">Semi-Final 1</text><text x="185" y="281" font-family="Arial, sans-serif" font-size="11" font-weight="normal" fill="#666666" stroke="none" stroke-width="0" text-anchor="middle" dominant-baseline="alphabetic">Brazil vs Germany</text></g><g fill="#9E9E9E" stroke="#616161" stroke-width="2" opacity="1"><rect width="130" height="52" x="280" y="236.2" rx="6" ry="6" fill="#9E9E9E" stroke="#616161" stroke-width="2" opacity="1"/><text x="345" y="255.2" font-family="Arial, sans-serif" font-size="14" font-weight="bold" fill="white" stroke="none" stroke-width="0" text-anchor="middle" dominant-baseline="alphabetic">Semi-Final 2</text><text x="345" y="281" font-family="Arial, sans-serif" font-size="11" font-weight="normal" fill="#666666" stroke="none" stroke-width="0" text-anchor="middle" dominant-baseline="alphabetic">France vs Spain</text></g><g fill="#4CAF50" stroke="#2E7D32" stroke-width="2" opacity="1"><rect width="100" height="52" x="20" y="356.2" rx="6" ry="6" fill="#4CAF50" stroke="#2E7D32" stroke-width="2" opacity="1"/><text x="70" y="375.2" font-family="Arial, sans-serif" font-size="14" font-weight="bold" fill="white" stroke="none" stroke-width="0" text-anchor="middle" dominant-baseline="alphabetic">Brazil</text><text x="70" y="401" font-family="Arial, sans-serif" font-size="11" font-weight="normal" fill="#666666" stroke="none" stroke-width="0" text-anchor="middle" dominant-baseline="alphabetic">Advances</text></g><g fill="#9E9E9E" stroke="#616161" stroke-width="2" opacity="1"><rect width="100" height="52" x="150" y="356.2" rx="6" ry="6" fill="#9E9E9E" stroke="#616161" stroke-width="2" opacity="1"/><text x="200" y="375.2" font-family="Arial, sans-serif" font-size="14" font-weight="bold" fill="white" stroke="none" stroke-width="0" text-anchor="middle" dominant-baseline="alphabetic">Germany</text><text x="200" y="401" font-family="Arial, sans-serif" font-size="11" font-weight="normal" fill="#666666" stroke="none" stroke-width="0" text-anchor="middle" dominant-baseline="alphabetic">Eliminated</text></g><g fill="#9E9E9E" stroke="#616161" stroke-width="2" opacity="1"><rect width="100" height="52" x="280" y="356.2" rx="6" ry="6" fill="#9E9E9E" stroke="#616161" stroke-width="2" opacity="1"/><text x="330" y="375.2" font-family="Arial, sans-serif" font-size="14" font-weight="bold" fill="white" stroke="none" stroke-width="0" text-anchor="middle" dominant-baseline="alphabetic">France</text><text x="330" y="401" font-family="Arial, sans-serif" font-size="11" font-weight="normal" fill="#666666" stroke="none" stroke-width="0" text-anchor="middle" dominant-baseline="alphabetic">Advances</text></g><g fill="#9E9E9E" stroke="#616161" stroke-width="2" opacity="1"><rect width="100" height="52" x="410" y="356.2" rx="6" ry="6" fill="#9E9E9E" stroke="#616161" stroke-width="2" opacity="1"/><text x="460" y="375.2" font-family="Arial, sans-serif" font-size="14" font-weight="bold" fill="white" stroke="none" stroke-width="0" text-anchor="middle" dominant-baseline="alphabetic">Spain</text><text x="460" y="401" font-family="Arial, sans-serif" font-size="11" font-weight="normal" fill="#666666" stroke="none" stroke-width="0" text-anchor="middle" dominant-baseline="alphabetic">Eliminated</text></g><path d="M 265 168.2 L 265 182.2 L 265 182.2 L 265 196.2" fill="none" stroke="#666" stroke-width="2" opacity="1"/><path d="M 185 196.2 L 185 196.2 L 345 196.2 L 345 196.2" fill="none" stroke="#666" stroke-width="2" opacity="1"/><text x="185" y="216.2" font-size="12" fill="#333" text-anchor="middle" dominant-baseline="central">Brazil Wins 2-1</text><path d="M 185 196.2 L 185 216.2 L 185 216.2 L 185 236.2" fill="none" stroke="#666" stroke-width="2" opacity="1"/><text x="345" y="216.2" font-size="12" fill="#333" text-anchor="middle" dominant-baseline="central">France Wins 3-1</text><path d="M 345 196.2 L 345 216.2 L 345 216.2 L 345 236.2" fill="none" stroke="#666" stroke-width="2" opacity="1"/><path d="M 185 288.2 L 185 297.2 L 185 297.2 L 185 306.2" fill="none" stroke="#666" stroke-width="2" opacity="1"/><path d="M 70 306.2 L 70 306.2 L 200 306.2 L 200 306.2" fill="none" stroke="#666" stroke-width="2" opacity="1"/><text x="70" y="331.2" font-size="12" fill="#333" text-anchor="middle" dominant-baseline="central">2-1</text><path d="M 70 306.2 L 70 331.2 L 70 331.2 L 70 356.2" fill="none" stroke="#666" stroke-width="2" opacity="1"/><text x="200" y="331.2" font-size="12" fill="#333" text-anchor="middle" dominant-baseline="central">1-2</text><path d="M 200 306.2 L 200 331.2 L 200 331.2 L 200 356.2" fill="none" stroke="#666" stroke-width="2" opacity="1"/><path d="M 345 288.2 L 345 307.2 L 345 307.2 L 345 326.2" fill="none" stroke="#666" stroke-width="2" opacity="1"/><path d="M 330 326.2 L 330 326.2 L 460 326.2 L 460 326.2" fill="none" stroke="#666" stroke-width="2" opacity="1"/><text x="330" y="341.2" font-size="12" fill="#333" text-anchor="middle" dominant-baseline="central">3-1</text><path d="M 330 326.2 L 330 341.2 L 330 341.2 L 330 356.2" fill="none" stroke="#666" stroke-width="2" opacity="1"/><text x="460" y="341.2" font-size="12" fill="#333" text-anchor="middle" dominant-baseline="central">1-3</text><path d="M 460 326.2 L 460 341.2 L 460 341.2 L 460 356.2" fill="none" stroke="#666" stroke-width="2" opacity="1"/></svg>