<svg xmlns="http://www.w3.org/2000/svg" width="330" height="230"><defs><linearGradient id="gradient-7mgyyeol4" x1="0%" y1="0%" x2="100%" y2="100%"><stop offset="0%" stop-color="#FF6B6B"/><stop offset="100%" stop-color="#FFE66D"/></linearGradient><linearGradient id="gradient-1756273274043-9eglk9nat" x1="0%" y1="0%" x2="0%" y2="100%"><stop offset="0%" stop-color="#FF6B6B"/><stop offset="100%" stop-color="#FFE66D"/></linearGradient><linearGradient id="gradient-hjfq71nzr" x1="0%" y1="0%" x2="100%" y2="100%"><stop offset="0%" stop-color="#FF6B6B"/><stop offset="100%" stop-color="#FFE66D"/></linearGradient><linearGradient id="gradient-1756273274043-f20fxw7no" x1="0%" y1="0%" x2="0%" y2="100%"><stop offset="0%" stop-color="#FF6B6B"/><stop offset="100%" stop-color="#FFE66D"/></linearGradient><linearGradient id="gradient-wc3j6naq3" x1="0%" y1="0%" x2="100%" y2="100%"><stop offset="0%" stop-color="#FF6B6B"/><stop offset="100%" stop-color="#FFE66D"/></linearGradient><linearGradient id="gradient-1756273274043-362ov5i9k" x1="0%" y1="0%" x2="0%" y2="100%"><stop offset="0%" stop-color="#FF6B6B"/><stop offset="100%" stop-color="#FFE66D"/></linearGradient></defs><g fill="url(#gradient-1756273274043-9eglk9nat)" stroke="#FF4757" stroke-width="3" opacity="1"><rect width="130" height="55" x="104" y="24" fill="rgba(255, 71, 87, 0.4)" stroke="none" stroke-width="0" rx="15" ry="15"/><rect width="130" height="55" x="100" y="20" rx="15" ry="15" fill="url(#gradient-7mgyyeol4)" stroke="#FF4757" stroke-width="3" opacity="1"/><text x="165" y="47.5" text-anchor="middle" dominant-baseline="middle" font-family="Arial, sans-serif" font-size="14" font-weight="bold" fill="#FFFFFF" stroke="none" stroke-width="0">A</text></g><g fill="url(#gradient-1756273274043-f20fxw7no)" stroke="#FF4757" stroke-width="3" opacity="1"><rect width="130" height="55" x="24" y="159" fill="rgba(255, 71, 87, 0.4)" stroke="none" stroke-width="0" rx="15" ry="15"/><rect width="130" height="55" x="20" y="155" rx="15" ry="15" fill="url(#gradient-hjfq71nzr)" stroke="#FF4757" stroke-width="3" opacity="1"/><text x="85" y="182.5" text-anchor="middle" dominant-baseline="middle" font-family="Arial, sans-serif" font-size="14" font-weight="bold" fill="#FFFFFF" stroke="none" stroke-width="0">B</text></g><g fill="url(#gradient-1756273274043-362ov5i9k)" stroke="#FF4757" stroke-width="3" opacity="1"><rect width="130" height="55" x="184" y="159" fill="rgba(255, 71, 87, 0.4)" stroke="none" stroke-width="0" rx="15" ry="15"/><rect width="130" height="55" x="180" y="155" rx="15" ry="15" fill="url(#gradient-wc3j6naq3)" stroke="#FF4757" stroke-width="3" opacity="1"/><text x="245" y="182.5" text-anchor="middle" dominant-baseline="middle" font-family="Arial, sans-serif" font-size="14" font-weight="bold" fill="#FFFFFF" stroke="none" stroke-width="0">C</text></g><line x1="165" y1="75" x2="85" y2="155" stroke="black" stroke-width="1" opacity="1"/><line x1="165" y1="75" x2="245" y2="155" stroke="black" stroke-width="1" opacity="1"/></svg>